<svg class="svgicon" id="svg40" preserveAspectRatio="xMidYMid meet" xmlns="http://www.w3.org/2000/svg" viewBox="0 0 128 128"><rect x="0" y="0" width="128" height="128" style="fill: rgb(63, 215, 118)" rx="64" ry="64"></rect><g transform="scale(0.66) translate(32.96969696969697, 32.96969696969697)"><style> #svg40 path, #svg40 circle, #svg40 polygon, #svg40 rect { fill: rgb(255, 255, 255) } #svg40 defs &gt; path { fill: none }  #svg40 path[fill="none"], #svg40 circle[fill="none"], #svg40 polygon[fill="none"], #svg40 rect[fill="none"] { fill: none } </style><style type="text/css"> #svg40 .st0{fill:rgb(255, 255, 255);} </style><path class="st0" d="M90.504,48.631L81.71,37.974c-1.526-1.86-4.3-2.126-6.157-0.595L26.523,77.827 c-1.854,1.532-2.126,4.303-0.589,6.16l3.537,4.297l1.997,2.422l3.256,3.938c1.532,1.862,4.304,2.127,6.162,0.594l49.027-40.446 C91.77,53.26,92.037,50.486,90.504,48.631z"></path><path class="st0" d="M38.902,56.704l14.325-11.815l3.544-2.925l4.882-4.022l2.066-1.704l8.414-6.95L55.507,9.13 c-2.382-2.884-6.684-3.296-9.572-0.92c-2.884,2.378-3.298,6.689-0.917,9.571l4.604,5.586c-1.437,0.051-2.874,0.56-4.065,1.54 c-0.592,0.492-1.082,1.06-1.464,1.687l-3.527-4.276c-4.491-5.449-12.614-6.224-18.059-1.732c-5.443,4.489-6.222,12.618-1.73,18.058 l3.346,4.061c-3.836-0.969-8.061-0.172-11.326,2.521c-5.444,4.492-6.224,12.621-1.732,18.061l8.046,9.749L36.983,58.29 L38.902,56.704z"></path><path class="st0" d="M119.229,110.369L98.795,85.601c0,0,0.567-0.282,1.612-1.329c1.046-1.047,1.458-10.333-0.716-10.454 c-2.177-0.118-11.327,9.34-11.327,9.34l-0.586-0.71c-0.379-0.468-0.905-1.071-1.361-1.588c-1.124-1.295-1.847-1.905-1.06-3.044 l18.399-26.649c1.999-3.751,2.117-3.966-1.122-7.892l-3.657-4.427c-4.356-5.288-5.163-4.591-9.121-1.184l-0.095,0.078l1.992,2.414 l0.139-0.121c1.945-1.668,2.337-2.007,4.661,0.813l3.656,4.426c1.909,2.314,1.847,2.422,0.786,4.418l-18.529,26.79 c-1.906,2.745-0.826,3.659,1.582,6.423c0.312,0.36,0.676,0.778,1.306,1.54l0.592,0.709c0,0-11.248,7.158-11.248,9.284 s8.823,4.025,10.333,2.516c1.507-1.506,1.685-1.386,1.685-1.386l20.435,24.768c0.963,1.17,2.715,1.339,3.885,0.368l7.821-6.445 C120.024,113.29,120.197,111.543,119.229,110.369z"></path></g></svg>
