<svg class="svgicon" id="svg45" preserveAspectRatio="xMidYMid meet" xmlns="http://www.w3.org/2000/svg" viewBox="0 0 128 128"><rect x="0" y="0" width="128" height="128" style="fill: rgb(63, 215, 118)" rx="64" ry="64"></rect><g transform="scale(0.7) translate(27.428571428571434, 27.428571428571434)"><style> #svg45 path, #svg45 circle, #svg45 polygon, #svg45 rect { fill: rgb(255, 255, 255) } #svg45 defs &gt; path { fill: none }  #svg45 path[fill="none"], #svg45 circle[fill="none"], #svg45 polygon[fill="none"], #svg45 rect[fill="none"] { fill: none } </style><path d="M101.138,21.176c-9.842-7.47-25.602-13.895-40.625-11.151c-6.071,1.108-13.114,3.238-18.586,6.107 C32.23,21.215,23.941,30.286,23.341,43.48c-0.102,2.239,0.821,5.193,0.266,8.23c-0.532,2.908-3.838,7.449-5.842,9.558 c-1.806,1.904-5.708,3.475-5.576,7.17c0.178,4.909,6,4.326,7.966,7.966c-1.775,1.774-3.041,6.684,0.531,7.436 c-2.688,3.769,1.92,4.772,2.389,7.435c0.621,3.516-1.628,6.191-1.061,9.292c0.237,1.302,1.423,3.164,2.654,3.984 c7.156,4.758,16.324-1.681,26.818-0.267c1.617,1.699,2.102,4.417,2.655,7.434c0.479,2.623,0.481,6.392,3.186,6.903 c1.118-2.176-0.445-5.794-1.061-8.761c-0.703-3.383-1.643-6.399-3.718-7.966c-7.82-1.449-15.988,2.656-23.367,1.593 c-8.279-1.194-2.113-7.967-3.717-13.541c-0.573-1.993-1.808-1.932-3.187-3.983c0.525-1.422,3.112-0.782,2.921-2.921 c-0.847-1.455-3.732-0.871-4.514-2.389c5.622-6.422-3.686-8.548-6.108-12.48c4.167-6.219,11.201-9.235,11.684-18.055 c0.171-3.133-0.583-5.902-0.266-8.495c1.462-11.968,9.585-20.129,19.118-24.428c5.249-2.368,12.652-4.602,18.852-5.046 c14.248-1.02,24.979,3.625,33.189,9.293c7.055,4.871,12.686,10.777,14.87,19.648c2.561,10.408,0.735,21.429-3.982,27.878 c-3.797,5.19-14.471,15.614-12.48,24.43c1.671,7.4,5.976,16.734,8.231,22.037h1.593c-0.115-4.25-2.401-7.678-3.718-11.417 c-1.312-3.728-3.364-8.036-3.717-11.949c-0.377-4.192,2.469-8.652,4.249-11.416c1.787-2.776,3.818-5.228,5.842-7.701 c4.557-5.572,7.196-10.563,7.699-19.647C116.551,38.699,110.573,28.337,101.138,21.176z"></path><path d="M99.576,69.517c0.034,0.01,0.066,0.021,0.099,0.03c0.353,0.111,0.767,0.244,1.41,0.128l0.118-0.021l0.092-0.075 c4.654-3.776,6.788-9.809,5.867-16.571c0.873-1.718,0.979-4.524,0.251-6.901c-0.443-1.444-1.142-2.521-1.987-3.073 c0.144-6.086-3.305-10.279-7.065-13.902c-0.641-0.618-1.267-1.29-1.873-1.941c-1.794-1.927-3.648-3.92-6.134-4.802 c-0.783-0.411-1.312-0.212-1.749,0.037c-0.043,0.025-0.089,0.052-0.136,0.078c-1.585-1.245-4.117-3.191-6.393-3.616l-0.13-0.012 c-0.188,0-0.395,0.07-0.614,0.144c-0.153,0.053-0.362,0.124-0.427,0.13c-0.273-0.093-0.536-0.305-0.813-0.529 c-0.353-0.284-0.718-0.579-1.188-0.712c-0.441-0.124-0.927-0.186-1.44-0.252c-0.486-0.062-0.989-0.126-1.549-0.249 c-0.277-0.06-0.661-0.198-1.033-0.331c-0.573-0.206-1.114-0.4-1.513-0.42l-0.104-0.002c-0.554,0-1.109,0.204-1.647,0.402 c-0.486,0.179-0.944,0.347-1.338,0.347l-0.106-0.005c-0.235-0.02-0.53-0.174-0.816-0.324c-0.37-0.194-0.752-0.394-1.171-0.418 c-0.674-0.032-1.313,0.111-1.923,0.253c-0.531,0.124-1.034,0.241-1.559,0.241l-2.407-0.011c-3.724,0-7.588,0.213-10.365,2.727 h-0.002c-4.078,0-6.108,2.057-8.047,4.075c-0.438-0.172-0.937-0.14-1.422-0.125c-0.238,0.008-0.475,0.018-0.692,0.004l-0.163-0.01 l-0.133,0.094c-3.4,2.41-5.772,5.691-7.052,9.751c-1.451,1.355-2.946,2.759-2.781,5.825c-1.917,3.352-2.701,6.918-2.208,10.057 c0.248,1.586,1.253,3.161,2.226,4.684c0.47,0.737,0.915,1.433,1.278,2.126c0.138,0.264,0.219,0.576,0.297,0.876 c0.11,0.42,0.223,0.855,0.5,1.183c1.995,2.371,5.084,2.385,8.354,2.4c1.479,0.007,3.007,0.014,4.527,0.229l0.202,0.028l0.157-0.13 c1.225-1.012,2.068-1.13,3.908-0.529c-0.187,2.932,1.591,3.989,3.167,4.928c0.39,0.232,0.761,0.453,1.105,0.699 c0.803,3.821,3.547,5.794,8.159,5.871c0.299,1.902,1.375,3.252,2.419,4.56c0.669,0.84,1.363,1.709,1.877,2.741 c0.689,1.382,1.228,2.929,1.749,4.423c1.379,3.959,2.806,8.051,7.149,9.633l1.053,0.383l-0.479-1.013 c-0.669-1.417-1.561-2.458-2.422-3.464c-0.707-0.826-1.439-1.681-2.038-2.741c-0.765-1.351-1.204-2.778-1.669-4.291 c-0.361-1.173-0.734-2.388-1.276-3.574c-0.517-1.134-1.272-2.066-2.004-2.97c-1.004-1.238-1.956-2.414-2.208-3.992 c1.08-0.144,2.142-0.312,3.173-0.474c0.807-0.128,1.614-0.256,2.432-0.373c-0.178,1.894,0.857,3.226,1.861,4.52 c0.781,1.008,1.52,1.959,1.694,3.154c0.115,0.791,0.2,1.612,0.284,2.436c0.413,4.007,0.839,8.152,4.758,9.187l0.5,0.132 l0.074-0.512c0.132-0.917-0.335-1.576-0.787-2.215c-0.266-0.375-0.541-0.764-0.722-1.229c-0.195-0.503-0.42-1.016-0.65-1.541 c-0.731-1.665-1.483-3.38-1.559-5.318c2.146,1.061,4.415,1.598,6.755,1.598C90.938,80.962,97.487,75.211,99.576,69.517z M70.954,28.371c-0.198-4.216,2.239-5.731,4.82-7.336c0.348-0.216,0.696-0.433,1.037-0.655c0.022,0.021,0.047,0.046,0.077,0.077 c0.005,0.007,0.012,0.012,0.018,0.019c-0.271,0.177-0.545,0.352-0.82,0.525c-2.578,1.632-5.24,3.319-5.095,7.794 c-3.089,0.219-5.768,3.355-5.852,5.94c-0.032,0.988,0.296,3.284,3.956,3.624c0.008,0.03,0.016,0.06,0.025,0.089l-0.215-0.017 c-3.476-0.267-3.942-2.369-3.91-3.599c0.047-1.838,1.231-3.964,2.939-5.159l0.147,0.15l-0.023-0.236 c0.771-0.511,1.642-0.832,2.561-0.855l0.353-0.009L70.954,28.371z M68.185,62.219c-0.931-1.241-2.654-2.05-4.441-2.05 c-0.497,0-0.994,0.06-1.481,0.178c-0.327-3.13-2.18-4.877-5.043-4.6c-0.56,0.055-0.938,0.317-1.242,0.528 c-0.217,0.151-0.395,0.274-0.598,0.307c0.739-0.891,1.706-1.093,2.431-1.093c1.214,0,2.526,0.584,3.423,1.524 c0.765,0.8,1.161,1.785,1.116,2.773l-0.021,0.448l0.438-0.095c1.841-0.396,3.939,0.261,5.376,1.642l0.195,0.187l0.229-0.144 c0.686-0.431,1.871-0.71,3.02-0.71c0.98,0,2.065,0.214,2.684,0.769C71.531,61.018,69.391,61.125,68.185,62.219z M69.998,66.533 c-1.294-0.493-2.998-0.56-4.693-0.593c0.11-0.017,0.218-0.034,0.327-0.051c0.84-0.133,1.633-0.256,2.337-0.256 C69.004,65.634,69.638,65.902,69.998,66.533z M35.368,43.117c-0.065,0-0.13,0.001-0.197,0.003 c-0.038-0.086-0.064-0.193-0.077-0.321c3.25-0.271,4.629,1.924,6.011,4.322C39.776,45.016,38.121,43.117,35.368,43.117z M42.33,50.859l0.863-0.261l-0.243-0.382c-0.263-0.415-0.522-0.858-0.785-1.314c0.574,0.89,1.215,1.706,2.027,2.275 c-0.209-0.108-0.417-0.219-0.62-0.334l-0.147-0.044c-0.94-0.072-1.65,0.393-2.264,0.792c-0.372,0.242-0.699,0.456-1.001,0.499 C40.521,51.388,41.368,51.14,42.33,50.859z M43.078,30.312l-0.081-0.033c-0.246-0.067-0.497-0.101-0.747-0.101 c-0.543,0-0.99,0.154-1.384,0.291c-0.186,0.064-0.355,0.123-0.506,0.154c1.085-0.991,2.889-0.688,4.097,0.573 c0.72,0.751,1.11,1.706,1.072,2.618l-0.009,0.207C45.075,32.503,44.42,31.081,43.078,30.312z M45.896,51.877 c0.656,0.164,1.276,0.319,1.962,0.996l0.208,0.205l0.237-0.17c0.06-0.043,0.121-0.082,0.185-0.119 c-0.144,0.315,0.077,0.704,0.309,1.111c0.099,0.175,0.189,0.34,0.262,0.494c-0.939-1.277-2.399-2.004-3.831-2.703 C45.454,51.767,45.677,51.822,45.896,51.877z M47.939,43.453c-0.057,0-0.115,0.001-0.172,0.003c0.86-0.241,2.361,0.097,3.247,0.505 c0.088,0.375,0.215,0.709,0.375,1.009C50.493,44.128,49.418,43.453,47.939,43.453z M52.724,54.014 c-0.346-0.084-0.708-0.312-1.115-0.567c-0.637-0.4-1.353-0.85-2.276-0.918C50.522,52.396,52.077,53.116,52.724,54.014z M72.215,44.49c0.736,0.483,1.774,0.805,2.712,0.805c1.058,0,1.851-0.392,2.274-1.113c0.544,0.236,1.111,0.355,1.687,0.355 c2.013,0,3.766-1.473,4.135-3.411c1.659,0.122,2.871-0.203,3.569-0.98c0.589-0.656,0.82-1.629,0.685-2.892L87.25,37l-0.251-0.048 c-1.183-0.226-3.295-0.8-4.146-2.116c-0.106-0.164-0.188-0.333-0.248-0.508c0.972,1.325,2.626,2.147,4.494,2.147 c0.981,0,1.931-0.242,2.763-0.693c-0.355,0.324-0.912,0.514-1.631,0.727c-0.225,0.066-0.45,0.133-0.666,0.208l-0.264,0.091 l0.033,0.277c0.176,1.479-0.05,2.583-0.671,3.283c-0.607,0.685-1.64,1.031-3.067,1.031l-0.37-0.004l-0.081,0.238 c-0.507,1.503-2.26,3.112-4.062,3.112c-0.484,0-0.951-0.115-1.389-0.341l-0.181-0.093l-0.505,0.342 c-0.567,0.39-1.103,0.758-1.729,0.952c-0.983,0.093-1.739-0.051-2.232-0.425l-0.315-0.24l-0.195,0.345 c-1.05,1.864-3.622,2.254-6.344,2.667c-2.393,0.363-4.864,0.737-6.271,2.234c-0.236-0.173-0.464-0.355-0.692-0.536 c-0.649-0.516-1.31-1.043-2.148-1.402c0.942,0.354,1.786,0.765,2.397,1.404l0.24,0.25l0.25-0.241 c1.118-1.078,3.452-1.424,5.708-1.76C68.784,47.438,71.991,46.962,72.215,44.49z M69.227,38.758c0.4,1.007,1.18,1.609,1.938,2.195 c0.221,0.17,0.435,0.336,0.636,0.508C70.625,41.336,69.503,40.175,69.227,38.758z M84.151,49.564 c0.152,0.31,0.404,0.499,0.682,0.636c-0.818-0.141-1.668,0.074-2.421,0.296c-0.698,0.206-1.367,0.382-1.958,0.231 c1.545-0.5,2.942-1.138,4.188-1.915c-0.137,0.11-0.273,0.223-0.406,0.337l-0.203,0.175L84.151,49.564z M94.484,40.576 c-0.354,1.656-1.59,2.548-3.877,2.804l-0.188,0.02l-0.084,0.17c-0.821,1.667-2.228,2.73-3.745,3.81 c1.325-1.145,2.417-2.497,3.271-4.051C92.071,43.318,93.589,42.416,94.484,40.576z M86.928,54.345l0.095,0.104l0.141,0.008 c0.41,0.023,0.82,0.058,1.225,0.092c0.697,0.059,1.355,0.114,1.999,0.114c0.925,0,1.651-0.12,2.256-0.38 c-0.031,0.052-0.067,0.101-0.11,0.145c-0.306,0.322-0.942,0.485-1.893,0.485c-0.843,0-1.792-0.121-2.709-0.237 c-0.449-0.057-0.881-0.112-1.271-0.148c-0.214-0.46-0.308-1.084-0.399-1.69c-0.132-0.871-0.268-1.771-0.763-2.375 c0.259,0.094,0.494,0.193,0.63,0.348c0.102,0.371,0.138,0.835,0.174,1.285C86.368,52.938,86.436,53.809,86.928,54.345z M98.184,56.01c0.952,0.225,1.502,0.832,1.701,1.875c-0.063-0.178-0.149-0.34-0.266-0.477c-0.141-0.514-0.553-0.739-0.888-0.923 C98.436,56.323,98.252,56.213,98.184,56.01z M103.16,58.706c-0.008,0.1-0.032,0.127-0.032,0.127 c-0.011,0.012-0.372,0.007-0.75-0.067c-0.527-0.105-1.197-0.198-1.698-0.037l-0.141,0.045l-0.064,0.133 c-0.176,0.361-0.167,0.76-0.157,1.144c0.007,0.312,0.014,0.613-0.077,0.883c-0.147-0.353-0.159-0.906-0.169-1.445 c-0.006-0.255-0.01-0.513-0.03-0.762l0.325-0.074c0.445-0.101,1.104-0.235,1.693-0.235C102.568,58.42,102.937,58.516,103.16,58.706 z M83.018,28.244c1.063,0,2.349,0.624,2.989,1.255c-0.317-0.079-0.668-0.231-1.032-0.39c-0.696-0.302-1.484-0.645-2.373-0.645 c-0.189,0-0.374,0.015-0.556,0.045C82.289,28.333,82.613,28.244,83.018,28.244z M58.639,41.805 c-0.812-1.293-1.802-2.873-3.506-3.284c2.25,0.49,3.701,2.551,4.268,4.427C59.147,42.616,58.896,42.216,58.639,41.805z M55.887,47.83c0.19,0.064,0.378,0.128,0.564,0.192c-0.494-0.143-1.048-0.228-1.686-0.228c-0.2,0-0.409,0.008-0.626,0.026 c-0.474-0.371-0.904-0.837-1.346-1.337C53.69,47.088,54.798,47.462,55.887,47.83z M53.214,38.657 c-0.265,0.087-0.537,0.177-0.876,0.232c-0.013-0.062-0.027-0.123-0.041-0.184l0.345-0.091c0.63-0.167,1.252-0.233,1.828-0.188 C53.972,38.4,53.606,38.527,53.214,38.657z M60.493,65.546c-1.213-0.33-2.089-0.959-2.333-2.189 c0.532,0.319,0.86,0.707,1.202,1.113C59.68,64.849,60.005,65.234,60.493,65.546z M66.854,27.769 c-1.778-1.246-4.299-1.966-7.016-1.966c-0.845,0-1.701,0.069-2.549,0.205c-0.238-1.096-0.957-1.724-1.599-2.284 c-0.277-0.242-0.545-0.475-0.773-0.737c0.975,0.131,1.875,1.37,2.253,2.539l0.087,0.269l0.281-0.032 c0.726-0.082,1.481-0.123,2.246-0.123C62.642,25.64,65.717,26.221,66.854,27.769z M56.51,34.213 c-0.412,0.039-1.02-0.02-1.651-0.088c-0.55-0.059-1.119-0.12-1.672-0.12c-0.71,0-1.729,0.086-2.379,0.832l-0.138,0.158l0.076,0.195 c0.178,0.454,0.45,0.795,0.712,1.124c0.432,0.543,0.806,1.012,0.749,1.945l-0.004,0.08c-0.739-2.62-2.593-3.946-5.522-3.946 c-0.331,0-0.681,0.018-1.042,0.051c-0.022-0.084-0.046-0.168-0.069-0.252l0.324-0.018c1.735-0.099,3.114,0.128,4.001,0.689 l0.194,0.122l0.187-0.13c0.991-0.683,2.604-1.142,4.014-1.142C54.939,33.713,55.793,33.809,56.51,34.213z M76.999,69.13 c0.815-0.446,1.585-0.869,2.368-0.933c0.217,0,0.472,0.107,0.742,0.221c0.371,0.155,0.768,0.323,1.188,0.274 c2.972-0.3,5.501-2.238,7.835-4.271c1.252,1.166,2.976,1.825,4.648,2.463c1.303,0.497,2.646,1.01,3.699,1.751 c-1.857,4.372-6.131,9.559-12.329,10.253c-0.642,0.071-1.274,0.107-1.88,0.107h-0.001c-5.745,0-9.49-3.158-10.363-8.691 C74.419,70.514,75.821,69.776,76.999,69.13z"></path></g></svg>
